<?xml version="1.0" encoding="UTF-8" ?>
<!DOCTYPE svg PUBLIC "-//W3C//DTD SVG 1.1//EN" "http://www.w3.org/Graphics/SVG/1.1/DTD/svg11.dtd">
<svg width="151pt" height="63pt" viewBox="0 0 151 63" version="1.1" xmlns="http://www.w3.org/2000/svg">
<path fill="#1c76bb" d=" M 0.00 0.00 L 151.00 0.00 L 151.00 63.00 L 0.00 63.00 L 0.00 0.00 Z" />
<path fill="#ffffff" d=" M 117.58 13.54 C 124.10 12.11 130.85 11.59 137.49 10.84 C 136.62 13.31 135.32 15.72 133.22 17.36 C 128.09 18.54 122.74 18.50 117.60 19.70 C 116.63 20.75 116.14 22.13 115.44 23.35 C 120.45 24.39 126.11 25.25 129.63 29.37 C 133.75 34.39 132.16 42.30 127.48 46.40 C 120.90 52.29 111.57 53.75 103.05 53.89 C 102.89 53.37 102.58 52.34 102.42 51.82 C 108.99 50.82 116.28 50.03 121.36 45.25 C 124.74 42.19 125.49 36.21 122.01 32.94 C 118.59 30.10 113.95 29.88 109.76 29.07 C 111.98 23.73 114.54 18.47 117.58 13.54 Z" />
<path fill="#ffffff" d=" M 15.40 13.01 C 22.60 12.99 29.80 13.00 37.00 13.00 C 37.00 14.33 37.00 15.67 37.00 17.00 C 31.09 17.01 25.18 16.99 19.27 17.01 C 19.27 21.00 19.27 25.00 19.27 28.99 C 24.80 29.01 30.34 28.99 35.87 29.01 C 35.87 30.33 35.87 31.66 35.87 33.00 C 30.34 33.01 24.80 32.99 19.27 33.01 C 19.27 37.34 19.27 41.66 19.27 45.99 C 25.38 46.01 31.49 45.99 37.60 46.01 C 37.60 47.34 37.60 48.66 37.60 49.99 C 30.20 50.01 22.80 50.01 15.40 49.99 C 15.40 37.66 15.40 25.34 15.40 13.01 Z" />
<path fill="#ffffff" d=" M 45.27 13.01 C 51.02 13.17 56.82 12.61 62.54 13.32 C 72.05 15.65 71.15 32.35 61.17 33.39 C 66.48 37.55 68.22 44.46 71.67 50.00 C 69.99 49.98 68.32 49.98 66.64 49.97 C 64.05 45.38 62.07 40.39 58.89 36.15 C 56.60 33.07 52.40 34.15 49.13 34.01 C 49.13 39.34 49.14 44.67 49.13 50.00 C 47.84 50.00 46.55 50.00 45.27 50.00 C 45.27 37.67 45.27 25.34 45.27 13.01 Z" />
<path fill="#ffffff" d=" M 78.27 13.01 C 83.41 13.15 88.60 12.65 93.72 13.27 C 103.90 15.06 103.61 32.90 93.54 34.67 C 89.82 35.33 86.02 34.88 82.27 35.00 C 82.27 40.00 82.27 45.00 82.27 50.00 C 80.93 50.00 79.60 50.00 78.27 50.00 C 78.27 37.67 78.27 25.34 78.27 13.01 Z" />
<path fill="#1c76bb" d=" M 49.13 17.00 C 53.00 17.10 56.90 16.76 60.76 17.16 C 66.56 18.48 66.57 28.23 60.88 29.71 C 57.00 30.33 53.04 29.87 49.13 29.99 C 49.13 25.66 49.13 21.33 49.13 17.00 Z" />
<path fill="#1c76bb" d=" M 82.27 17.01 C 86.40 17.42 90.98 15.96 94.78 18.02 C 98.08 21.41 98.02 28.88 93.00 30.62 C 89.48 31.38 85.84 30.88 82.27 30.99 C 82.27 26.33 82.27 21.67 82.27 17.01 Z" />
</svg>
