<?xml version="1.0"?>
<svg width="240" height="180" xmlns="http://www.w3.org/2000/svg">

 <g>
  <title>background</title>
  <rect fill="none" id="canvas_background" height="182" width="242" y="-1" x="-1"/>
 </g>
 <g>
  <title>Layer 1</title>
  <path id="svg_1" d="m34.202,166.070999c-2.047001,1.770996 -4.567999,2.658005 -7.562,2.658005c-1.833,0 -3.591,-0.412003 -5.271,-1.237c-1.007999,-0.488007 -1.924999,-1.146011 -2.749998,-1.971008l0,2.75l-3.576001,0l0,-12.145996l3.575,0l0,1.832993c0,1.833008 0.778999,3.469009 2.337,4.904007c1.619001,1.436996 3.528999,2.154007 5.729,2.154007c1.893999,0 3.483,-0.565002 4.767,-1.695999c1.251999,-1.069 1.879002,-2.475006 1.879002,-4.21701c0,-1.526993 -0.565002,-2.703995 -1.696001,-3.528c-0.611,-0.459 -1.452002,-0.901001 -2.521,-1.328995c-1.070002,-0.428009 -2.429001,-0.841003 -4.079,-1.238007c-1.65,-0.427002 -3.101999,-0.916 -4.354,-1.465988c-1.253,-0.55101 -2.277,-1.192001 -3.070999,-1.925003c-1.650002,-1.46701 -2.475001,-3.499008 -2.475001,-6.096008c0,-2.321991 0.962001,-4.30899 2.888,-5.959c1.894001,-1.587997 4.201,-2.382996 6.92,-2.382996c0.794001,0 1.604,0.054001 2.429001,0.160004c0.824999,0.106995 1.633999,0.328995 2.428999,0.664993c0.733002,0.335999 1.390001,0.671997 1.971001,1.007996c0.580002,0.337006 1.176003,0.825012 1.787998,1.46701c0.334999,0.397003 0.619003,0.748993 0.848003,1.054001c0.228996,0.306992 0.451,0.703995 0.664997,1.192001c0.184002,0.365997 0.320999,0.82399 0.413002,1.375c0.091999,0.549988 0.167,1.076996 0.229,1.580994c0.060997,0.503998 0.106998,1.123001 0.137997,1.856003l-3.895998,0l0,-1.32901c0,-0.213989 -0.031,-0.496994 -0.091,-0.848999c-0.062,-0.350998 -0.160999,-0.725998 -0.298,-1.123001c-0.136999,-0.395996 -0.320999,-0.778 -0.549999,-1.145996c-0.229,-0.365997 -0.512001,-0.688004 -0.848,-0.96199c-0.704,-0.520004 -1.49,-0.855011 -2.360001,-1.009003c-0.871,-0.152008 -1.872,-0.229004 -3.002001,-0.229004c-1.710999,0 -3.115999,0.459 -4.216,1.375c-1.07,0.886993 -1.603998,2.001999 -1.603998,3.345993c0,1.498001 0.564999,2.644012 1.695997,3.438004c0.642002,0.429001 1.398003,0.818008 2.269001,1.169006c0.871,0.352005 1.871,0.649002 3.002001,0.893997c2.108,0.520996 3.910999,1.100998 5.407999,1.742004c1.497002,0.641998 2.658001,1.345001 3.483002,2.108002c1.679996,1.588989 2.521,3.727997 2.521,6.416c-0.001999,2.690994 -1.056004,4.921997 -3.164001,6.692993z" fill="#4DAAAD"/>
  <path id="svg_2" d="m47.310001,168.270996l0,-3.528992l4.216999,0l0,-25.528l-4.216999,0l0,-3.529007l8.294998,0l0,3.529007l-0.044998,0l0,25.528l11.365993,0l0,-8.021011l3.94101,0l0,11.550003l-23.557003,0z" fill="#4DAAAD"/>
  <path id="svg_3" d="m103.179001,168.270996l0,-3.528992l3.574997,0l-2.888,-8.296005l-11.549995,0l-3.070999,9.029007l0,2.79599l-7.975006,0l0,-3.528992l4.171005,0l9.166,-26.490997l0.824997,-2.56601l10.083,0l0,3.529007l-3.574997,0l8.936996,25.528l4.079002,0l0,3.528992l-11.777,0zm-5.041,-28.644989l-4.583,13.292007l9.121002,0l-4.538002,-13.292007z" fill="#4DAAAD"/>
  <path id="svg_4" d="m148.643997,152.779999c-1.955002,1.772003 -4.520996,2.658005 -7.69899,2.658005l-6.371002,0l0,10.037003l0,2.79599l-8.158005,0l0,-3.528992l4.125,0l0,-25.528l-4.125,0l0,-3.529007l14.069992,0c1.711014,0 3.246002,0.214005 4.60701,0.641998c1.358994,0.429001 2.526993,1.085007 3.505997,1.971008c1.986008,1.71199 2.979004,4.140991 2.979004,7.287003c-0.001007,2.963989 -0.979004,5.362 -2.934006,7.194992zm-1.55899,-10.037003c-0.304993,-0.824997 -0.731995,-1.481995 -1.28299,-1.970993c-1.131012,-1.039001 -3.055008,-1.559006 -5.77301,-1.559006l-5.454987,0l0,12.695007l5.454987,0c1.283005,0 2.391006,-0.130005 3.322006,-0.389999c0.931992,-0.259003 1.718994,-0.64801 2.358994,-1.169006c1.223007,-0.945999 1.834,-2.442993 1.834,-4.490997c0,-1.251007 -0.152008,-2.291 -0.459,-3.115005z" fill="#4DAAAD"/>
  <path id="svg_5" d="m190.854996,163.962997c-3.08699,3.179001 -6.996994,4.766998 -11.733002,4.766998s-8.645996,-1.587997 -11.731995,-4.766998c-3.117004,-3.207993 -4.675003,-7.209991 -4.675003,-12.007996c0,-4.796997 1.557999,-8.800003 4.675003,-12.007996c3.085999,-3.178009 6.996002,-4.767014 11.731995,-4.767014s8.646011,1.589005 11.733002,4.767014c3.115997,3.207993 4.675003,7.210999 4.675003,12.007996c0,4.798004 -1.557999,8.800003 -4.675003,12.007996zm-2.840988,-21.403c-2.352997,-2.444 -5.315994,-3.666992 -8.891998,-3.666992c-3.604996,0 -6.554001,1.237991 -8.845001,3.712997c-2.354004,2.444 -3.528992,5.561996 -3.528992,9.349991c0,3.789001 1.175995,6.904999 3.528992,9.350006c2.291,2.475998 5.238998,3.712997 8.845001,3.712997c3.574997,0 6.539001,-1.222 8.891998,-3.666992c2.322006,-2.505005 3.483002,-5.638 3.483002,-9.396011s-1.161011,-6.890991 -3.483002,-9.395996z" fill="#267B87"/>
  <path id="svg_6" d="m226.604996,166.070999c-2.047989,1.770996 -4.567993,2.658005 -7.561996,2.658005c-1.832993,0 -3.591003,-0.412003 -5.270996,-1.237c-1.009003,-0.488007 -1.925003,-1.146011 -2.75,-1.971008l0,2.75l-3.574997,0l0,-12.145996l3.574997,0l0,1.832993c0,1.833008 0.778992,3.469009 2.33699,4.904007c1.619003,1.436996 3.529007,2.154007 5.729004,2.154007c1.895004,0 3.483002,-0.565002 4.766998,-1.695999c1.251999,-1.069 1.878998,-2.475006 1.878998,-4.21701c0,-1.526993 -0.564987,-2.703995 -1.694992,-3.528c-0.612,-0.459 -1.451996,-0.901001 -2.520996,-1.328995s-2.429001,-0.841003 -4.07901,-1.238007c-1.649002,-0.427002 -3.10199,-0.916 -4.353989,-1.465988c-1.253006,-0.55101 -2.276001,-1.192001 -3.070999,-1.925003c-1.649002,-1.46701 -2.475006,-3.499008 -2.475006,-6.096008c0,-2.321991 0.962997,-4.30899 2.888,-5.959c1.893997,-1.587997 4.199997,-2.382996 6.921005,-2.382996c0.793991,0 1.603989,0.054001 2.428986,0.160004c0.825012,0.106995 1.634003,0.328995 2.429001,0.664993c0.733002,0.335999 1.391006,0.671997 1.971008,1.007996c0.580002,0.337006 1.177002,0.825012 1.787994,1.46701c0.335999,0.397003 0.617996,0.748993 0.848007,1.054001c0.229004,0.306992 0.449997,0.703995 0.664993,1.192001c0.182999,0.365997 0.320007,0.82399 0.412003,1.375c0.091995,0.549988 0.167999,1.076996 0.229004,1.580994c0.060989,0.503998 0.106003,1.123001 0.136993,1.856003l-3.895996,0l0,-1.32901c0,-0.213989 -0.029999,-0.496994 -0.091995,-0.848999c-0.062012,-0.350998 -0.160004,-0.725998 -0.298004,-1.123001c-0.138,-0.395996 -0.320007,-0.778 -0.550003,-1.145996c-0.229004,-0.365997 -0.511993,-0.688004 -0.847992,-0.96199c-0.703003,-0.520004 -1.490005,-0.855011 -2.360001,-1.009003c-0.871002,-0.152008 -1.872009,-0.229004 -3.001999,-0.229004c-1.712006,0 -3.117004,0.459 -4.21701,1.375c-1.069992,0.886993 -1.603989,2.001999 -1.603989,3.345993c0,1.498001 0.564987,2.644012 1.695999,3.438004c0.641998,0.429001 1.396988,0.818008 2.268997,1.169006c0.871002,0.352005 1.871002,0.649002 3.001999,0.893997c2.108002,0.520996 3.910995,1.100998 5.408005,1.742004s2.65799,1.345001 3.482986,2.108002c1.680008,1.588989 2.521011,3.727997 2.521011,6.416c0,2.690994 -1.054001,4.921997 -3.16301,6.692993z" fill="#267B87"/>
  <path id="svg_7" d="m194.016006,56.167c5.401001,-18.312 -4.404999,-37.841999 -23.464996,-45.033c-16.401993,-6.188 -32.379013,1.774 -41.03801,14.933c-5.923988,-8.964998 -15.87999,-15.500999 -28.625992,-16.526999c-14.971008,-1.207 -29.063011,9.147 -34.778008,22.443c-5.917,13.765001 -2.051003,28.921 7.821999,39.672998c0.000999,0.001007 0.003998,0.003006 0.005997,0.004997c13.728004,14.958008 4.986,38.931007 -15.615997,40.591003c-20.259998,1.632004 -30.070999,-20.933998 -21.150997,-36.350998c1.181999,-1.181999 2.362999,-2.362999 3.542999,-3.542999c2.673,-2.674004 2.160999,-6.014999 0.288998,-8.264999c-1.945999,-3.206001 -6.374001,-4.905003 -9.636,-1.352001c-1.516998,1.650997 -2.834999,3.372997 -3.998999,5.135998c-6.169001,6.168999 -12.339001,12.339005 -18.509001,18.508003c-5.752,5.752998 3.161,14.667 8.914999,8.915001c1.195002,-1.195 2.391001,-2.391006 3.586002,-3.586006c1.648998,16.653 14.724998,31.549004 34.530998,33.144005c14.971001,1.206001 29.063004,-9.146004 34.778999,-22.443001c5.917,-13.765999 2.051003,-28.922005 -7.821999,-39.674c-0.000999,-0.002003 -0.003998,-0.004002 -0.005997,-0.005001c-13.729004,-14.957001 -4.986,-38.931 15.614998,-40.59c22.218002,-1.790001 31.879997,25.526001 18.042,40.596001c-5.486,5.974995 3.403999,14.913998 8.914001,8.915005c7.539001,-8.211006 10.630005,-17.997005 10.123993,-27.354004c0.062012,-0.266003 0.141006,-0.521 0.175003,-0.808002c1.794998,-15.650999 16.798004,-24.454998 31.488998,-20.204998c16.270996,4.705999 19.362,24.570999 10.919006,37.115997c-3.156006,4.691002 2.024002,10.698997 7.119003,9.259003c12.835999,-3.627007 25.647995,1.737999 30.480988,14.542999c4.657013,12.345001 -2.751999,25.794998 -14.623993,30.274002c-8.251999,3.112999 -19.979004,1.306999 -28.535004,1.306999l-73.084999,0c-8.128998,0 -8.128998,12.605988 0,12.605988l87.959007,0c19.026001,0 35.437988,-7.895988 41.098999,-27.46199c6.890991,-23.820999 -12.639999,-43.620998 -34.516998,-44.765999z" fill="#267B87"/>
 </g>
</svg>