<?xml version="1.0" encoding="utf-8"?>
<!-- Generator: Adobe Illustrator 23.0.1, SVG Export Plug-In . SVG Version: 6.00 Build 0)  -->
<svg version="1.1" id="Calque_1" xmlns:serif="http://www.serif.com/"
	 xmlns="http://www.w3.org/2000/svg" xmlns:xlink="http://www.w3.org/1999/xlink" x="0px" y="0px" viewBox="0 150 361.8 200"
	 style="enable-background:new 0 0 361.8 285.4;" xml:space="preserve">
<style type="text/css">
	.st1{fill-rule:evenodd;clip-rule:evenodd;fill:#FFF;}
</style>
<g transform="matrix(0.800616,0,0,0.800616,149.252,787.912)">
	<g transform="matrix(1.24904,0,0,1.24904,-14082,-984.133)">
		<path class="st1" d="M11180.8,246.3h-20.5v-11.2h52.3v11.2h-20.6v39.2h-11.2V246.3z"/>
	</g>
	<g transform="matrix(1.24904,0,0,1.24904,-14074.5,-984.133)">
		<path class="st1" d="M11235.5,273.4c-11.8-2.6-20.6-13-20.6-25.6v-12.8h11.2v12.8c0,8.3,6.7,15,14.9,15s14.9-6.7,14.9-15v-12.8
			h11.2v12.8c0,12.5-8.8,23-20.6,25.6v12h-11.2V273.4z"/>
	</g>
	<g transform="matrix(1.24904,0,0,1.24904,-14069.5,-984.133)">
		<path class="st1" d="M11271.9,246.3L11271.9,246.3v-11.2h27.8c11.7,0,21.2,9.5,21.2,21.2c0,11.7-9.5,21.2-21.2,21.2h-16.6v8.1
			h-11.2V246.3z M11283.1,246.3v19.9h16.6c5.5,0,10-4.5,10-9.9c0-5.5-4.5-10-10-10H11283.1z"/>
	</g>
	<g transform="matrix(-0.849206,1.03998e-16,-1.22465e-16,-1,5231.03,2306.92)">
		<path class="st1" d="M5902.6,2935.4h16.5v29.4c0,5.8,3.1,11,8,14.4c3.8,2.7,8.7,4.3,14,4.3c12.1,0,22-8.4,22-18.7v-29.4h16.5v29.4
			c0,18-17.2,32.7-38.5,32.7c-9.3,0-17.8-2.8-24.5-7.5c-8.5-6-14-15.1-14-25.2V2935.4z"/>
	</g>
	<g transform="matrix(1,0,0,1,-2620.49,0)">
		<path class="st1" d="M2732.4-689.7c16.9,0,30.6,13.7,30.6,30.6c0,16.9-13.7,30.6-30.6,30.6c-16.9,0-30.6-13.7-30.6-30.6
			C2701.8-676,2715.6-689.7,2732.4-689.7z M2732.4-675.7c-9.2,0-16.6,7.4-16.6,16.6c0,9.2,7.4,16.6,16.6,16.6
			c9.2,0,16.6-7.4,16.6-16.6C2749-668.2,2741.6-675.7,2732.4-675.7z"/>
	</g>
</g>
</svg>
